<svg width="17" height="16" viewBox="0 0 17 16" fill="none" xmlns="http://www.w3.org/2000/svg">
  <g opacity="0.5">
    <path d="M10.2566 2.66666H6.92328L5.25661 4.66666H3.25661C2.90299 4.66666 2.56385 4.80713 2.3138 5.05718C2.06375 5.30723 1.92328 5.64637 1.92328 5.99999V12C1.92328 12.3536 2.06375 12.6928 2.3138 12.9428C2.56385 13.1928 2.90299 13.3333 3.25661 13.3333H13.9233C14.2769 13.3333 14.616 13.1928 14.8661 12.9428C15.1161 12.6928 15.2566 12.3536 15.2566 12V5.99999C15.2566 5.64637 15.1161 5.30723 14.8661 5.05718C14.616 4.80713 14.2769 4.66666 13.9233 4.66666H11.9233L10.2566 2.66666Z" stroke="white" stroke-width="1.33333" stroke-linecap="round" stroke-linejoin="round"/>
    <path d="M8.58997 10.6667C9.69454 10.6667 10.59 9.77123 10.59 8.66666C10.59 7.56209 9.69454 6.66666 8.58997 6.66666C7.4854 6.66666 6.58997 7.56209 6.58997 8.66666C6.58997 9.77123 7.4854 10.6667 8.58997 10.6667Z" stroke="white" stroke-width="1.33333" stroke-linecap="round" stroke-linejoin="round"/>
  </g>
</svg>