<svg width="16" height="18" viewBox="0 0 16 18" fill="none" xmlns="http://www.w3.org/2000/svg">
<path d="M13.0267 1.33334C13.9307 1.33334 14.6667 2.06934 14.6667 2.98134V17.3333L12.9467 15.8133L11.9787 14.9173L10.9547 13.9653L11.3787 15.4453H2.30669C1.40269 15.4453 0.666687 14.7093 0.666687 13.7973V2.98134C0.666687 2.06934 1.40269 1.33334 2.30669 1.33334L13.0267 1.33334ZM9.93869 11.7813C11.7067 11.7253 12.3867 10.5653 12.3867 10.5653C12.3867 7.98934 11.2347 5.90134 11.2347 5.90134C10.0827 5.03734 8.98669 5.06134 8.98669 5.06134L8.87469 5.18934C10.2347 5.60534 10.8667 6.20534 10.8667 6.20534C10.0347 5.74934 9.21869 5.52534 8.45869 5.43734C7.88269 5.37334 7.33069 5.38934 6.84269 5.45334L6.70669 5.46934C6.42669 5.49334 5.74669 5.59734 4.89069 5.97334C4.59469 6.10934 4.41869 6.20534 4.41869 6.20534C4.41869 6.20534 5.08269 5.57334 6.52269 5.15734L6.44269 5.06134C6.44269 5.06134 5.34669 5.03734 4.19469 5.90134C4.19469 5.90134 3.04269 7.98934 3.04269 10.5653C3.04269 10.5653 3.71469 11.7253 5.48269 11.7813C5.48269 11.7813 5.77869 11.4213 6.01869 11.1173C5.00269 10.8133 4.61869 10.1733 4.61869 10.1733L4.84269 10.3093L4.87469 10.3333L4.90602 10.3513L4.91535 10.3553L4.94669 10.3733C5.14669 10.4853 5.34669 10.5733 5.53069 10.6453C5.85869 10.7733 6.25069 10.9013 6.70669 10.9893C7.30669 11.1013 8.01069 11.1413 8.77869 10.9973C9.15469 10.9333 9.53869 10.8213 9.93869 10.6533C10.2187 10.5493 10.5307 10.3973 10.8587 10.1813C10.8587 10.1813 10.4587 10.8373 9.41069 11.1333C9.65069 11.4373 9.93869 11.7813 9.93869 11.7813ZM6.21869 8.04534C5.76269 8.04534 5.40269 8.44534 5.40269 8.93334C5.40269 9.42134 5.77069 9.82134 6.21869 9.82134C6.67469 9.82134 7.03469 9.42134 7.03469 8.93334C7.04269 8.44534 6.67469 8.04534 6.21869 8.04534ZM9.13869 8.04534C8.68269 8.04534 8.32269 8.44534 8.32269 8.93334C8.32269 9.42134 8.69069 9.82134 9.13869 9.82134C9.59469 9.82134 9.95469 9.42134 9.95469 8.93334C9.95469 8.44534 9.59469 8.04534 9.13869 8.04534Z" fill="white"/>
</svg>
