<svg xmlns="http://www.w3.org/2000/svg" width="168" height="160" viewBox="0 0 168 160" fill="none">
  <path d="M137.743 142.831C137.673 143.204 137.647 143.588 137.654 143.966C137.668 144.849 137.829 145.725 137.852 146.607C137.903 148.566 136.697 150.058 137.281 152.092C137.548 153.022 138.55 154.771 139.668 154.746C140.782 154.721 141.469 153.513 141.789 152.615C142.276 151.254 142.743 150.009 143.432 148.722C143.765 148.1 144.09 147.461 144.353 146.804C141.943 145.735 139.79 144.47 138.255 143.273C138.073 143.131 137.904 142.983 137.743 142.831Z" fill="#1F2A50"/>
  <path d="M162.626 145.263C162.896 145.553 163.16 145.851 163.435 146.135C164.222 146.948 165.233 147.805 166.339 147.578C167.256 147.39 167.883 146.462 167.982 145.531C168.081 144.6 167.757 143.677 167.355 142.831C166.381 140.773 164.94 138.984 163.348 137.373C163.394 137.822 163.438 138.273 163.471 138.726C163.631 140.894 163.467 143.308 162.626 145.263Z" fill="#1F2A50"/>
  <path d="M163.8 151.486C163.484 149.701 162.836 148.003 162.025 146.388C161.496 147.201 160.807 147.886 159.91 148.361C159.031 148.826 158.038 149.12 156.971 149.276C157.644 150.756 158.364 152.214 159.147 153.639C159.69 154.63 160.439 155.723 161.567 155.796C162.501 155.857 163.35 155.127 163.691 154.256C164.033 153.384 163.963 152.408 163.8 151.486Z" fill="#1F2A50"/>
  <path d="M150.027 148.756C150.058 148.903 150.089 149.049 150.123 149.195C150.517 150.961 150.985 152.71 151.526 154.436C151.864 155.515 152.382 156.734 153.473 157.028C154.377 157.272 155.354 156.724 155.86 155.936C156.366 155.15 156.491 154.178 156.513 153.242C156.543 151.938 156.393 150.645 156.131 149.372C154.229 149.519 152.13 149.266 150.027 148.756Z" fill="#1F2A50"/>
  <path d="M134.632 96.0619C134.899 98.2054 134.841 100.39 134.443 102.513C134.06 104.554 133.574 106.614 133.638 108.705C133.75 112.37 135.78 116.439 137.263 119.741C137.654 120.611 138.062 121.48 138.491 122.344C141.616 128.638 145.808 134.671 151.718 138.543C153.207 139.516 154.857 140.364 156.635 140.449C158.513 140.539 160.349 139.756 161.857 138.633C162.23 138.355 162.743 137.766 163.323 137.105C161.428 119.381 150 103.401 135.918 92.9098C135.547 92.6334 135.126 92.3253 134.675 92.0145C134.952 93.3019 134.882 94.7 134.632 96.0619Z" fill="#EBF2E5"/>
  <path d="M162.025 146.388C162.256 146.036 162.455 145.66 162.626 145.263C163.467 143.308 163.631 140.894 163.471 138.726C163.438 138.273 163.393 137.822 163.348 137.373C163.339 137.283 163.333 137.194 163.323 137.105C162.743 137.766 162.23 138.355 161.857 138.633C160.349 139.756 158.513 140.539 156.634 140.449C154.857 140.364 153.207 139.516 151.718 138.543C145.808 134.671 141.615 128.638 138.491 122.344C138.062 121.48 137.654 120.61 137.263 119.741C135.78 116.439 133.749 112.37 133.638 108.705C133.574 106.614 134.059 104.554 134.442 102.513C134.841 100.39 134.899 98.2054 134.632 96.0618C134.622 96.1194 134.612 96.1777 134.601 96.2353C134.488 96.8151 134.344 97.388 134.181 97.941C134.105 98.1985 134.022 98.4538 133.939 98.7097C133.988 99.0926 133.996 99.4799 133.961 99.854C133.814 101.45 133.087 102.924 132.55 104.434C131.655 106.95 131.39 109.508 131.475 112.075C131.594 115.64 132.388 119.225 133.106 122.736C135.214 133.054 140.937 142.728 149.702 148.675C149.81 148.702 149.918 148.73 150.027 148.756C152.13 149.266 154.229 149.519 156.131 149.372C156.416 149.35 156.695 149.317 156.971 149.276C158.038 149.12 159.031 148.826 159.91 148.361C160.807 147.886 161.496 147.201 162.025 146.388Z" fill="#C6CAD6"/>
  <path d="M133.106 122.736C132.388 119.225 131.594 115.641 131.475 112.075C131.39 109.508 131.655 106.95 132.55 104.434C133.087 102.924 133.814 101.45 133.961 99.8541C133.996 99.4799 133.988 99.0927 133.939 98.7098C132.485 103.197 130.009 107.348 126.756 110.763C126.412 112.337 126.02 113.903 125.589 115.46C127.247 118.291 128.766 121.203 130.138 124.183C130.185 124.288 130.234 124.392 130.282 124.497C131.809 127.848 133.151 131.283 134.298 134.782C135.252 137.694 135.505 140.716 137.743 142.831C137.903 142.983 138.073 143.131 138.255 143.273C139.79 144.47 141.943 145.735 144.353 146.804C146.049 147.556 147.873 148.209 149.701 148.675C140.937 142.728 135.214 133.054 133.106 122.736Z" fill="#A1A8C3"/>
  <path d="M128.62 87.3808C129.497 89.6026 130.002 91.9712 130.11 94.3577C130.133 94.8769 130.143 95.421 130.397 95.8754C130.606 96.2492 131.036 96.4587 131.546 96.5596C132.472 96.7423 133.663 96.5673 134.279 96.3724C134.387 96.3378 134.494 96.2895 134.601 96.2353C134.612 96.1778 134.622 96.1194 134.632 96.0619C134.881 94.7 134.952 93.3019 134.675 92.0145C134.485 91.1326 134.134 90.3014 133.566 89.5716C132.406 88.0831 130.493 87.3316 128.595 87.355C128.597 87.3773 128.598 87.3999 128.599 87.4218C128.606 87.4084 128.613 87.3945 128.62 87.3808Z" fill="#203A73"/>
  <path d="M131.546 96.5595C131.036 96.4586 130.606 96.2491 130.397 95.8753C130.143 95.4209 130.133 94.8768 130.11 94.3576C130.002 91.9711 129.497 89.6026 128.62 87.3806C128.613 87.3945 128.606 87.4082 128.599 87.4217C128.635 88.0311 128.669 88.6401 128.692 89.2498C128.781 91.6587 128.764 94.0704 128.648 96.4785C128.55 98.4958 128.388 100.51 128.148 102.517C127.818 105.281 127.352 108.034 126.756 110.762C130.009 107.348 132.485 103.196 133.939 98.7096C134.022 98.4537 134.105 98.1984 134.181 97.941C134.344 97.388 134.488 96.815 134.6 96.2352C134.493 96.2894 134.387 96.3377 134.279 96.3723C133.663 96.5672 132.472 96.7422 131.546 96.5595Z" fill="#1F2A50"/>
  <path d="M29.7447 143.273C28.2097 144.47 26.0569 145.735 23.647 146.804C23.9099 147.461 24.2348 148.1 24.5676 148.722C25.2572 150.009 25.7235 151.253 26.2104 152.615C26.5313 153.513 27.2178 154.721 28.3318 154.746C29.4504 154.771 30.452 153.022 30.7187 152.092C31.3024 150.058 30.0967 148.566 30.1476 146.607C30.171 145.725 30.3315 144.849 30.3464 143.966C30.3526 143.588 30.3264 143.204 30.257 142.831C30.0962 142.983 29.9269 143.131 29.7447 143.273Z" fill="#1F2A50"/>
  <path d="M4.52864 138.726C4.56204 138.273 4.60654 137.822 4.65222 137.373C3.06006 138.984 1.61909 140.773 0.644358 142.831C0.243346 143.677 -0.0813339 144.601 0.0180841 145.531C0.117109 146.462 0.743777 147.39 1.66054 147.578C2.76799 147.805 3.77809 146.948 4.5644 146.135C4.84035 145.851 5.10353 145.553 5.37408 145.263C4.53286 143.308 4.36939 140.894 4.52864 138.726Z" fill="#1F2A50"/>
  <path d="M5.97416 146.388C5.16408 148.003 4.51629 149.701 4.20006 151.486C4.03659 152.408 3.96714 153.384 4.30862 154.256C4.6498 155.127 5.49898 155.857 6.43304 155.796C7.56082 155.723 8.30921 154.63 8.85335 153.639C9.63544 152.214 10.3561 150.756 11.0292 149.276C9.96237 149.12 8.96878 148.826 8.09003 148.361C7.19252 147.886 6.50367 147.201 5.97416 146.388Z" fill="#1F2A50"/>
  <path d="M11.8686 149.372C11.6069 150.645 11.4572 151.938 11.4872 153.242C11.5091 154.178 11.6334 155.15 12.1399 155.936C12.6464 156.724 13.6231 157.272 14.5264 157.028C15.6177 156.734 16.1359 155.515 16.4735 154.436C17.0146 152.71 17.4831 150.961 17.878 149.195C17.9106 149.05 17.9421 148.903 17.9736 148.756C15.8699 149.266 13.7716 149.519 11.8686 149.372Z" fill="#1F2A50"/>
  <path d="M6.44226 138.646C7.95004 139.769 9.78662 140.553 11.6647 140.462C13.4418 140.377 15.0923 139.529 16.5816 138.556C22.4909 134.684 26.6833 128.651 29.8078 122.358C30.2369 121.493 30.6459 120.624 31.0362 119.755C32.5194 116.453 34.5495 112.384 34.6614 108.718C34.7255 106.627 34.2397 104.567 33.8564 102.527C33.5168 100.717 33.4296 98.8635 33.5739 97.028C33.1699 95.3737 32.9822 93.6092 33.3249 92.0144C32.8732 92.3252 32.453 92.6334 32.0824 92.9096C18.0756 103.344 6.69759 119.208 4.70972 136.818C5.39965 137.596 6.01365 138.326 6.44226 138.646Z" fill="#EBF2E5"/>
  <path d="M35.1938 122.75C35.9115 119.238 36.7058 115.654 36.8244 112.088C36.9096 109.521 36.6448 106.964 35.7496 104.448C35.2119 102.938 34.4859 101.463 34.3378 99.8674C34.3255 99.7331 34.3186 99.5977 34.3163 99.4618C34.1389 98.9587 33.9706 98.4526 33.8189 97.9411C33.739 97.6705 33.6653 97.3939 33.596 97.1153C33.5887 97.0865 33.5814 97.0577 33.5741 97.0281C33.4297 98.8636 33.5169 100.717 33.8565 102.527C34.2398 104.568 34.7257 106.628 34.6616 108.718C34.5495 112.384 32.5195 116.453 31.0364 119.755C30.646 120.624 30.237 121.494 29.808 122.358C26.6835 128.652 22.4911 134.684 16.5817 138.556C15.0924 139.529 13.4419 140.377 11.6648 140.463C9.78674 140.553 7.95006 139.769 6.44238 138.646C6.01377 138.327 5.39977 137.596 4.70974 136.818C4.68862 137.002 4.67093 137.187 4.65217 137.373C4.60649 137.822 4.56199 138.273 4.52859 138.726C4.36934 140.894 4.53281 143.308 5.37393 145.263C5.54467 145.66 5.7443 146.036 5.97408 146.388C6.50368 147.201 7.19244 147.886 8.09005 148.361C8.9688 148.826 9.96239 149.12 11.0292 149.276C11.3043 149.317 11.5833 149.35 11.8684 149.372C13.7714 149.519 15.8697 149.266 17.9735 148.756C18.2548 148.688 18.5357 148.615 18.8166 148.538C27.4571 142.579 33.1036 132.981 35.1938 122.75Z" fill="#C6CAD6"/>
  <path d="M34.3162 99.4618C34.3185 99.5977 34.3255 99.7331 34.3377 99.8674C34.4859 101.463 35.2119 102.938 35.7495 104.448C36.6448 106.964 36.9096 109.521 36.8244 112.088C36.7058 115.654 35.9114 119.238 35.1938 122.75C33.1036 132.981 27.4571 142.579 18.8167 148.538C20.4702 148.084 22.1107 147.485 23.6469 146.804C26.0568 145.735 28.2096 144.47 29.7446 143.273C29.9268 143.131 30.0961 142.983 30.2569 142.831C32.4949 140.716 32.7481 137.694 33.7017 134.782C34.848 131.283 36.1907 127.848 37.7184 124.497C37.766 124.392 37.8144 124.288 37.8624 124.183C39.1479 121.389 40.5704 118.659 42.1089 115.996C41.5594 114.058 41.0835 112.104 40.6699 110.139C37.877 107.044 35.7027 103.393 34.3162 99.4618Z" fill="#A1A8C3"/>
  <path d="M33.5741 97.0281C33.5814 97.0577 33.5886 97.0865 33.596 97.1153C33.7894 97.1916 34.0035 97.2258 34.2119 97.2147C34.842 97.1801 35.7223 96.8483 36.3697 96.3781C36.6763 96.1555 36.9303 95.9014 37.0811 95.634C37.2941 95.2545 37.3444 94.8093 37.4027 94.3788C37.6579 92.4942 38.156 90.6438 38.872 88.8816C38.8927 88.3751 38.9284 87.8697 38.9588 87.3636C37.2116 87.4545 35.5023 88.1998 34.434 89.5717C33.8657 90.3016 33.5149 91.132 33.325 92.0146C32.9824 93.6093 33.17 95.3738 33.5741 97.0281Z" fill="#203A73"/>
  <path d="M38.8543 89.568C38.8616 89.3397 38.8623 89.1102 38.872 88.8815C38.1559 90.6437 37.6578 92.4941 37.4026 94.3787C37.3443 94.8093 37.294 95.2544 37.0811 95.6339C36.9303 95.9014 36.6762 96.1554 36.3696 96.378C35.7222 96.848 34.8419 97.18 34.2118 97.2146C34.0034 97.2257 33.7893 97.1916 33.5959 97.1151C33.6654 97.3938 33.7391 97.6704 33.8189 97.9409C33.9704 98.4525 34.1389 98.9586 34.3162 99.4617C35.7027 103.393 37.877 107.044 40.6699 110.139C40.3611 108.674 40.0901 107.203 39.8576 105.727C39.6891 104.659 39.5345 103.589 39.4063 102.517C38.8927 98.2193 38.7112 93.8895 38.8543 89.568Z" fill="#1F2A50"/>
  <path d="M59.5525 146.111C59.7632 146.511 59.9815 146.908 60.2164 147.297C65.529 152.377 72.2718 155.95 79.4648 157.475C83.833 158.402 88.3554 158.572 92.7826 158.005C95.5219 157.247 98.1347 156.091 100.505 154.496C103.637 152.39 106.25 149.452 108.006 146.109C97.1493 150.156 70.4145 150.156 59.5525 146.111Z" fill="#1F2A50"/>
  <path d="M128.692 89.2499C123.04 91.7941 117.078 93.7049 110.988 95.0184C107.065 95.8646 103.086 96.4694 99.0834 96.8439C89.7031 97.7204 80.1132 97.2469 70.7644 96.1639C59.6688 94.878 49.0509 93.3496 38.8544 89.568C38.7112 93.8894 38.8928 98.2193 39.4062 102.517C39.5344 103.589 39.689 104.659 39.8575 105.727C44.2495 109.18 48.7447 112.502 53.634 115.189C66.3859 122.198 83.8886 125.427 98.2395 121.727C98.4203 121.68 98.601 121.632 98.781 121.583C105.434 119.777 112.663 112.863 117.648 108.333C121.641 104.703 125.322 100.729 128.648 96.4786C128.765 94.0705 128.781 91.6588 128.692 89.2499Z" fill="#EBF2E5"/>
  <path d="M74.7926 142.374C66.6971 141.558 58.6971 139.718 51.0713 136.879C52.4029 139.132 53.8327 141.337 55.3715 143.479C56.0995 144.493 57.562 145.369 59.5525 146.111C70.4144 150.156 97.1493 150.156 108.006 146.109C109.995 145.367 111.455 144.492 112.183 143.479C113.602 141.504 114.925 139.472 116.168 137.401C114.957 137.829 113.739 138.241 112.511 138.62C100.35 142.365 87.4524 143.652 74.7926 142.374Z" fill="#C6CAD6"/>
  <path d="M128.148 102.517C128.388 100.51 128.55 98.4959 128.648 96.4786C125.322 100.729 121.641 104.703 117.647 108.333C112.663 112.863 105.434 119.777 98.7809 121.583C98.601 121.632 98.4202 121.68 98.2395 121.727C83.8885 125.427 66.3858 122.198 53.6339 115.189C48.7445 112.502 44.2494 109.179 39.8574 105.727C40.09 107.204 40.3609 108.674 40.6698 110.139C41.0834 112.104 41.5593 114.058 42.1088 115.996C44.1012 123.022 46.9797 129.838 50.697 136.249C53.3011 137.236 55.9486 138.111 58.6325 138.862C70.7739 142.258 83.5637 143.222 96.0758 141.671C103.043 140.808 109.927 139.177 116.535 136.792C120.503 130.061 123.536 122.875 125.589 115.46C126.02 113.903 126.412 112.337 126.756 110.762C127.352 108.034 127.818 105.281 128.148 102.517Z" fill="#C6CAD6"/>
  <path d="M96.0761 141.671C83.564 143.222 70.7741 142.258 58.6327 138.862C55.9488 138.111 53.3013 137.236 50.6973 136.249C50.8197 136.46 50.9471 136.669 51.0715 136.879C58.6973 139.718 66.6973 141.558 74.7928 142.374C87.4525 143.652 100.351 142.365 112.511 138.62C113.74 138.241 114.957 137.829 116.168 137.401C116.29 137.198 116.415 136.996 116.536 136.792C109.927 139.177 103.043 140.808 96.0761 141.671Z" fill="#203A73"/>
  <path d="M38.8542 89.568C49.0508 93.3495 59.6687 94.878 70.7643 96.1639C80.1131 97.2468 89.7029 97.7204 99.0833 96.8439C103.086 96.4693 107.065 95.8646 110.988 95.0184C117.078 93.7049 123.039 91.7942 128.692 89.2499C128.669 88.6402 128.635 88.0312 128.599 87.4218C128.598 87.3999 128.597 87.3773 128.595 87.355C128.562 86.8002 128.529 86.2452 128.485 85.6907C114.077 87.0987 53.477 87.0987 39.0696 85.6907C39.0251 86.2479 38.9917 86.8056 38.9587 87.3634C38.9283 87.8696 38.8927 88.375 38.8719 88.8815C38.8623 89.1102 38.8615 89.3397 38.8542 89.568Z" fill="#A1A8C3"/>
  <path d="M19.9449 41.881C20.443 39.7066 21.2128 36.0085 21.3633 35.4866C22.1082 32.9005 22.9958 30.352 24.0349 27.8692C24.2165 27.436 24.444 26.82 24.7218 26.1627C25.6597 22.9323 26.7883 19.7741 28.0934 16.7302C28.2396 16.3898 28.3873 16.0498 28.5366 15.7102C26.0994 16.2394 24.0199 16.8994 23.1822 17.5997C21.8709 18.6961 21.0029 20.1356 20.2166 21.5719C16.8577 27.7107 15.026 34.0835 14.5344 40.4971C15.7045 41.3164 16.9263 42.0616 18.2011 42.7059C18.9103 43.0641 19.7676 42.655 19.9449 41.881Z" fill="#203A73"/>
  <path d="M147.338 21.572C146.552 20.1357 145.684 18.6963 144.372 17.5998C143.533 16.8987 141.451 16.2384 139.012 15.7091C139.164 16.0476 139.314 16.3876 139.461 16.7303C141.412 21.2808 142.975 26.085 144.081 31.0088C144.556 31.7045 145.02 32.1992 145.317 33.0327C146.045 35.0808 146.657 37.1469 147.407 39.1795C147.636 39.8012 147.877 40.4194 148.14 41.033C149.958 40.2717 151.489 39.2156 152.744 37.8783C152 32.3514 150.239 26.8742 147.338 21.572Z" fill="#203A73"/>
  <path d="M153.161 44.0012C153.159 41.9573 153.018 39.9146 152.745 37.8781C151.489 39.2155 149.958 40.2715 148.14 41.0329C147.877 40.4193 147.636 39.8011 147.407 39.1794C146.658 37.1467 146.045 35.0806 145.317 33.0326C145.02 32.1991 144.556 31.7044 144.081 31.0087C145.014 35.1627 145.621 39.402 145.859 43.6465C146.257 50.7389 145.627 57.8463 143.766 64.5956C142.991 67.4062 141.924 70.4205 140.537 73.3371C143.134 72.6107 145.38 71.7529 146.218 70.9467C147.451 69.7624 148.218 68.2662 148.902 66.7788C152.361 59.2663 153.677 51.5737 153.161 44.0012Z" fill="#1F2A50"/>
  <path d="M21.6066 45.8667C21.7763 39.2168 22.8692 32.5468 24.7219 26.1629C24.4441 26.8202 24.2165 27.4361 24.035 27.8694C22.9958 30.3522 22.1083 32.9007 21.3634 35.4867C21.213 36.0087 20.4432 39.7068 19.945 41.8811C19.7677 42.6552 18.9105 43.0642 18.2013 42.7061C16.9264 42.0618 15.7046 41.3165 14.5346 40.4973C14.4452 41.6647 14.3949 42.8328 14.3933 44.0013C13.8772 51.5738 15.1935 59.2664 18.6522 66.7789C19.3368 68.2664 20.1035 69.7626 21.3357 70.9468C22.1746 71.7531 24.4202 72.6108 27.0182 73.3372C25.6306 70.4207 24.5631 67.4064 23.7882 64.5958C22.122 58.5506 21.445 52.218 21.6066 45.8667Z" fill="#1F2A50"/>
  <path d="M144.081 31.0087C142.975 26.0848 141.413 21.2807 139.461 16.7302C139.314 16.3875 139.164 16.0475 139.012 15.709C137.002 11.2333 134.496 7.11613 130.457 4.02818C123.314 -1.43136 45.1242 -1.25335 37.0985 4.02818C32.8493 6.82455 30.5215 11.1958 28.5368 15.7102C28.3875 16.0498 28.2398 16.3898 28.0935 16.7302C26.7884 19.774 25.6597 22.9323 24.7219 26.1627C22.8693 32.5467 21.7763 39.2166 21.6067 45.8665C22.8562 47.3152 24.2197 48.666 25.6763 49.9048C27.7666 51.6827 30.3254 54.4741 33.126 52.5399C35.3207 51.0245 34.8889 48.2849 35.0977 45.943C35.3179 43.4713 35.567 40.9684 36.1457 38.5505C36.4887 37.1157 36.8994 35.6947 37.3733 34.2955C38.4934 28.5166 40.8247 23.029 44.9224 18.7088C45.9819 17.5918 65.0998 17.1896 83.7775 17.2848C102.455 17.1896 121.573 17.5918 122.633 18.7088C126.088 22.3521 128.285 26.827 129.562 31.605C129.872 32.2297 130.166 32.8625 130.435 33.5057C131.427 35.8765 132.054 38.2097 132.397 40.7444L133.505 48.9677C133.695 50.3795 135.189 51.2253 136.489 50.6435C139.08 49.4842 141.506 48.036 143.599 46.1118C144.462 45.3183 145.207 44.4947 145.86 43.6466C145.621 39.402 145.014 35.1628 144.081 31.0087Z" fill="#EBF2E5"/>
  <path d="M145.859 43.6467C145.207 44.4948 144.462 45.3183 143.599 46.1119C141.506 48.036 139.08 49.4842 136.489 50.6436C135.189 51.2253 133.695 50.3795 133.504 48.9677L132.396 40.7444C132.054 38.2097 131.426 35.8765 130.435 33.5057C130.165 32.8626 129.872 32.2298 129.562 31.605C130.41 34.779 130.853 38.0861 130.983 41.3752C131.313 43.1504 131.516 44.9644 131.587 46.7848C131.864 53.9617 129.826 70.817 125.37 72.9486C120.37 75.3394 51.3253 73.0515 46.3646 72.6447C42.2424 72.3067 40.8693 70.1208 39.6402 66.187C38.5811 62.7955 37.9448 59.1948 37.766 55.5768C36.464 49.1617 35.9754 41.5033 37.3731 34.2954C36.8992 35.6945 36.4885 37.1155 36.1455 38.5504C35.5667 40.9684 35.3177 43.4712 35.0975 45.9429C34.8887 48.2849 35.3205 51.0245 33.1258 52.5399C30.3252 54.474 27.7664 51.6825 25.6761 49.9047C24.2194 48.666 22.856 47.3152 21.6065 45.8665C21.4449 52.2178 22.1218 58.5504 23.7881 64.5956C24.5629 67.4061 25.6305 70.4205 27.0181 73.337C29.1908 77.9047 32.1549 82.2303 36.0557 85.1387C36.3285 85.3417 37.3835 85.5259 39.0697 85.6906C53.477 87.0985 114.077 87.0985 128.485 85.6906C130.171 85.5259 131.226 85.3417 131.499 85.1387C135.4 82.2304 138.363 77.9047 140.537 73.337C141.924 70.4205 142.992 67.4062 143.767 64.5956C145.627 57.8464 146.257 50.739 145.859 43.6467Z" fill="#C6CAD6"/>
  <path d="M123.47 70.3397C122.286 71.0385 102.812 71.3793 83.7773 71.3624C64.7431 71.3793 45.2679 71.0385 44.0845 70.3397C42.0368 69.1301 39.3217 63.2419 37.7661 55.577C37.9449 59.195 38.5812 62.7957 39.6403 66.1872C40.8695 70.121 42.2425 72.3068 46.3647 72.6449C51.3254 73.0517 120.37 75.3396 125.37 72.9488C129.826 70.8171 131.865 53.9619 131.587 46.785C131.516 44.9645 131.313 43.1505 130.983 41.3754C131.525 55.0792 126.677 68.4454 123.47 70.3397Z" fill="#A1A8C3"/>
  <path d="M130.983 41.3753C130.854 38.0862 130.41 34.7791 129.562 31.6051C128.285 26.827 126.088 22.3521 122.632 18.7089C121.573 17.5919 102.455 17.1897 83.7773 17.2849C65.0996 17.1897 45.9818 17.5919 44.9222 18.7089C40.8245 23.0292 38.4933 28.5167 37.3731 34.2956C35.9755 41.5035 36.464 49.1619 37.7661 55.577C39.3218 63.2419 42.0368 69.1302 44.0844 70.3397C45.2679 71.0385 64.743 71.3793 83.7772 71.3624C102.811 71.3793 122.286 71.0385 123.47 70.3397C126.677 68.4454 131.525 55.0792 130.983 41.3753Z" fill="#1F2A50"/>
  <path d="M44.0882 40.1296C43.4849 43.1593 42.9937 46.3747 44.0517 49.277C45.7494 53.9322 50.8409 54.324 55.109 54.1471C55.2763 54.1402 55.4448 54.1306 55.6121 54.1237C54.9317 52.8182 54.5772 51.3142 54.4878 49.8775C54.2667 46.334 54.6528 32.6577 56.4376 30.7178C59.0409 27.8888 64.6555 27.8589 67.2858 30.7178C69.0706 32.6584 69.4566 46.334 69.2356 49.8775C69.1635 51.033 68.9194 52.2306 68.4735 53.3346C74.9619 52.8089 81.4602 52.0759 87.8676 51.0528C91.3567 50.4956 94.8299 49.8425 98.2852 49.1049C98.1513 44.68 98.5948 32.5371 100.269 30.7177C102.872 27.8887 108.486 27.8588 111.117 30.7177C112.392 32.1046 112.953 39.4836 113.089 44.876C114.751 44.0674 116.327 43.0467 117.806 41.6794C120.835 38.8762 123.337 34.323 121.342 30.2235C120.212 27.898 118.031 26.2156 115.659 25.1849C113.288 24.1546 110.711 23.7055 108.16 23.288C91.2929 20.527 73.9314 18.7613 57.1885 22.1977C55.1032 22.6256 52.795 23.0968 50.9292 24.1718C49.2849 25.1193 48.4529 26.9071 47.624 28.5948C45.8435 32.221 44.8734 36.1866 44.0882 40.1296Z" fill="#203A73"/>
  <path d="M67.2857 30.7179C64.6555 27.8589 59.0409 27.8889 56.4375 30.7179C54.6527 32.6577 54.2666 46.3341 54.4877 49.8776C54.5771 51.3143 54.9317 52.8183 55.612 54.1238C56.1523 55.1615 56.8984 56.0747 57.883 56.7287C60.0193 58.1477 63.635 58.1934 65.84 56.7287C67.0672 55.9132 67.9237 54.6956 68.4733 53.3348C68.9192 52.2308 69.1632 51.0331 69.2354 49.8777C69.4566 46.334 69.0705 32.6584 67.2857 30.7179Z" fill="#3EC0F0"/>
  <path d="M100.269 30.7179C98.5947 32.5372 98.1511 44.6801 98.2851 49.1051C98.2939 49.398 98.3054 49.6577 98.3193 49.8776C98.4797 52.4567 99.4913 55.2519 101.714 56.7286C103.85 58.1476 107.466 58.1933 109.671 56.7286C111.895 55.2519 112.906 52.4567 113.067 49.8776C113.13 48.8668 113.143 47.029 113.089 44.8762C112.953 39.4838 112.392 32.1047 111.117 30.7179C108.486 27.8589 102.872 27.8889 100.269 30.7179Z" fill="#3EC0F0"/>
  <path d="M79.4647 157.475C72.2717 155.95 65.529 152.377 60.2163 147.297C61.9389 150.147 64.2932 152.642 67.0501 154.496C71.9359 157.783 77.8568 159.208 83.7765 159.13C86.8261 159.17 89.875 158.811 92.7827 158.005C88.3553 158.572 83.8329 158.402 79.4647 157.475Z" fill="#203A73"/>
</svg>