<svg width="16" height="16" viewBox="0 0 16 16" fill="none" xmlns="http://www.w3.org/2000/svg">
<path fill-rule="evenodd" clip-rule="evenodd" d="M12.2533 14.52C12.4666 14.6733 12.7466 14.7067 12.9933 14.62C13.24 14.5267 13.42 14.3133 13.4733 14.06C14.0533 11.34 15.46 4.44665 15.9866 1.96665C16.0266 1.77999 15.96 1.58665 15.8133 1.45999C15.6666 1.33332 15.4666 1.29999 15.28 1.36665C12.4866 2.39999 3.87997 5.63332 0.359974 6.93332C0.139974 7.01332 -0.00669259 7.23332 -2.59204e-05 7.46665C0.00664075 7.69999 0.166641 7.90665 0.393307 7.97332C1.97331 8.44665 4.03997 9.09999 4.03997 9.09999C4.03997 9.09999 5.00664 12.0267 5.51331 13.5067C5.57997 13.6933 5.71997 13.84 5.91331 13.8933C6.10664 13.9467 6.31331 13.8933 6.45331 13.7533C7.26664 12.9867 8.51997 11.8067 8.51997 11.8067C8.51997 11.8067 10.9 13.5533 12.2533 14.5133V14.52ZM4.91331 8.73332L6.03331 12.4267L6.27997 10.0867C6.27997 10.0867 10.6066 6.18665 13.0666 3.95999C13.14 3.89332 13.1466 3.78665 13.0866 3.70665C13.0266 3.63332 12.92 3.61332 12.8333 3.66665C9.97331 5.49332 4.90664 8.73332 4.90664 8.73332H4.91331Z" fill="white"/>
</svg>
