<svg width="16" height="16" viewBox="0 0 16 16" fill="none" xmlns="http://www.w3.org/2000/svg">
<path d="M10.6667 8.66667L14.1487 10.988C14.1989 11.0214 14.2572 11.0406 14.3174 11.0435C14.3776 11.0463 14.4375 11.0328 14.4907 11.0044C14.5438 10.9759 14.5883 10.9336 14.6192 10.8818C14.6502 10.8301 14.6666 10.771 14.6667 10.7107V5.24667C14.6667 5.18802 14.6512 5.1304 14.6218 5.07964C14.5925 5.02887 14.5502 4.98675 14.4994 4.95754C14.4485 4.92832 14.3908 4.91304 14.3322 4.91324C14.2735 4.91344 14.216 4.92911 14.1653 4.95867L10.6667 7" stroke="white" stroke-width="1.33333" stroke-linecap="round" stroke-linejoin="round"/>
<path d="M9.33334 4H2.66668C1.9303 4 1.33334 4.59695 1.33334 5.33333V10.6667C1.33334 11.403 1.9303 12 2.66668 12H9.33334C10.0697 12 10.6667 11.403 10.6667 10.6667V5.33333C10.6667 4.59695 10.0697 4 9.33334 4Z" stroke="white" stroke-width="1.33333" stroke-linecap="round" stroke-linejoin="round"/>
</svg>
